# xmcd CD database file
#
# Track frame offsets:
#	150
#	22122
#	44002
#	72212
#	91320
#	111275
#	127537
#	145427
#	162437
#	179007
#	203192
#	223595
#	243235
#	261777
#	280592
#
# Disc length: 4026 seconds
#
# Revision: 5
# Processed by: cddbd v1.5.2PL0 Copyright (c) Steve Scherf et al.
# Submitted via: CDex 1.70beta2
#
DISCID=e00fb80f
DTITLE=Yellow Magic Orchestra - We Love YMO
DYEAR=1998
DGENRE=Rock
TTITLE0=COSMIC SURFIN'
TTITLE1=FIRECRACKER
TTITLE2=東風
TTITLE3=TECHNOPOLIS
TTITLE4=RYDEEN
TTITLE5=Behind The Mask
TTITLE6=SOLID STATE SURVIVOR
TTITLE7=Nice Age
TTITLE8=TIGHTEN UP (Japanese Gentlemen Stand Up Please)
TTITLE9=1000 KNIVES
TTITLE10=CUE
TTITLE11=Taiso
TTITLE12=君に、胸キュン。-浮気なヴァカンス-
TTITLE13=過激な淑女
TTITLE14=以心電信
EXTD=YEAR: 1998
EXTT0=
EXTT1=
EXTT2=
EXTT3=
EXTT4=
EXTT5=
EXTT6=
EXTT7=
EXTT8=
EXTT9=
EXTT10=
EXTT11=
EXTT12=
EXTT13=
EXTT14=
PLAYORDER=
